# xmcd CD database file
#
# Track frame offsets:
#	150
#	23378
#	41099
#	53747
#	69642
#	88670
#	110919
#	129278
#	148367
#	173870
#	197557
#	216577
#	238079
#	254509
#	270686
#	290773
#	311204
#
# Disc length: 4376 seconds
#
# Revision: 1
# Processed by: cddbd v1.5PL3 Copyright (c) Steve Scherf et al.
# Submitted via: CDex 1.51
#
DISCID=12111611
DTITLE=Thomas Stelzer - Best of Thomas Stelzer CD1
DYEAR=2000
DGENRE=Blues
TTITLE0=Take up My Mind
TTITLE1=Me and My Boogie Shoes
TTITLE2=She drives me crazy
TTITLE3=No fade away
TTITLE4=Don't say bye bye
TTITLE5=River's deep, Mountains's high
TTITLE6=Groove
TTITLE7=It's a rainy day
TTITLE8=Midnight hour blues
TTITLE9=Anywhere
TTITLE10=Reggae meets blues
TTITLE11=1999
TTITLE12=Tell me why
TTITLE13=Look around
TTITLE14=Another lon'ly day
TTITLE15=Cure without you
TTITLE16=I've got a dream
EXTD=YEAR: 2000
EXTT0=
EXTT1=
EXTT2=
EXTT3=
EXTT4=
EXTT5=
EXTT6=
EXTT7=
EXTT8=
EXTT9=
EXTT10=
EXTT11=
EXTT12=
EXTT13=
EXTT14=
EXTT15=
EXTT16=
PLAYORDER=
